<?xml version="1.0" encoding="utf-8"?>
<!-- Generator: Adobe Illustrator 23.0.0, SVG Export Plug-In . SVG Version: 6.00 Build 0)  -->
<svg version="1.1" xmlns="http://www.w3.org/2000/svg" xmlns:xlink="http://www.w3.org/1999/xlink" x="0px" y="0px"
	 viewBox="0 0 150 150" style="enable-background:new 0 0 150 150;" xml:space="preserve">
<style type="text/css">
	.st0{display:none;}
	.st1{display:inline;}
	.st2{clip-path:url(#SVGID_2_);}
	.st3{fill:#FFFFFF;}
	.st4{fill:#2680EB;}
	.st5{font-family:'MicrosoftYaHei-Bold';}
	.st6{font-size:36px;}
	.st7{fill:none;stroke:#FFFFFF;stroke-linejoin:round;stroke-dasharray:1,100;}
	.st8{fill:none;stroke:#707070;}
	.st9{fill:#FFFFFF;stroke:#000000;stroke-miterlimit:10;}
	.st10{fill:#830C2B;}
</style>
<g id="学生" class="st0">
	<g class="st1">
		<defs>
			<rect id="SVGID_1_" x="75" y="-149" width="184" height="224"/>
		</defs>
		<clipPath id="SVGID_2_">
			<use xlink:href="#SVGID_1_"  style="overflow:visible;"/>
		</clipPath>
		<g id="c" class="st2">
			<rect x="75" y="-149" class="st3" width="184" height="224"/>
			<g transform="matrix(1, 0, 0, 1, 0, 0)">
				<text transform="matrix(1 0 0 1 117.964 26)" class="st4 st5 st6">信小助</text>
				<text transform="matrix(1 0 0 1 117.964 26)" class="st7 st5 st6">信小助</text>
			</g>
			<g transform="translate(40 25)">
				<circle class="st3" cx="127.5" cy="-96.5" r="52.5"/>
				<circle class="st8" cx="127.5" cy="-96.5" r="52"/>
			</g>
			<text transform="matrix(1 0 0 1 149 -83)" class="st4 st5 st6">学</text>
			<text transform="matrix(1 0 0 1 149 -83)" class="st5 st6" style="fill:none;stroke:#FFFFFF;">学</text>
			<text transform="matrix(1 0 0 1 149 -36)" class="st4 st5 st6">生</text>
			<text transform="matrix(1 0 0 1 149 -36)" class="st5 st6" style="fill:none;stroke:#FFFFFF;">生</text>
		</g>
	</g>
</g>
<g id="老师">
	<circle class="st9" cx="76.6" cy="52.1" r="52.1"/>
	<text transform="matrix(1 0 0 1 39 68)" class="st10 st5 st6">老师</text>
	<text transform="matrix(1 0 0 1 24.5 142)" class="st3 st5 st6">信小助</text>
</g>
</svg>
